# xmcd
#
# Track frame offsets:
#	150
#	13873
#	31156
#	50081
#	64560
#	76458
#	94330
#	112211
#	133351
#	147093
#	160784
#	181667
#
# Disc length: 2578 seconds
#
# Revision: 0
# Processed by: cddbd v1.5.2PL0 Copyright (c) Steve Scherf et al.
# Submitted via: dBpowerAMP V4.0
#
DISCID=a40a100c
DTITLE=Shenandoah Blue - Shenandoah Blue
DYEAR=2003
DGENRE=Bluegrass
TTITLE0=Our Love Will Never End
TTITLE1=Holding Things Together
TTITLE2=Blue Frame Of Mind
TTITLE3=I'm On My Knees
TTITLE4=Rabbit Dance
TTITLE5=Lead Upon His Word
TTITLE6=That Certain Someone
TTITLE7=When Fall's Coming Down
TTITLE8=Lay It On The Line
TTITLE9=I'm Afraid I forgot The Feeling
TTITLE10=Pressed Through The Crowd
TTITLE11=Foggy Mountain Top
EXTD=
EXTT0=
EXTT1=
EXTT2=
EXTT3=
EXTT4=
EXTT5=
EXTT6=
EXTT7=
EXTT8=
EXTT9=
EXTT10=
EXTT11=
PLAYORDER=
